<svg width="100%" viewBox="0 0 680 565" role="img" xmlns="http://www.w3.org/2000/svg">
<title>Раскадровка «Большой лист»</title>
<desc>Девять кадров пилота AI Kids Studio: Макс и Ева прячутся от дождя под одним большим листом.</desc>
<style>
.frame{fill:#F4EFE3;stroke:#CDC6B5;stroke-width:1}
.ink{fill:#3A372F;stroke:none}
.line{stroke:#3A372F;stroke-width:1.4;fill:none;stroke-linecap:round}
.leaf{fill:#84A05C;stroke:#5C7740;stroke-width:1}
.rib{stroke:#5C7740;stroke-width:1;fill:none;stroke-linecap:round}
.rain{stroke:#7C97B4;stroke-width:1.3;fill:none;stroke-linecap:round}
.cap{font-family:sans-serif;font-size:14px;fill:#3A372F}
.tc{font-family:sans-serif;font-size:12px;fill:#73726c}
.no{font-family:sans-serif;font-size:12px;fill:#73726c}
@media (prefers-color-scheme:dark){
.frame{fill:#26241F;stroke:#4C483F}
.ink{fill:#D8D2C4}.line{stroke:#D8D2C4}.leaf{fill:#90AC68;stroke:#B6CE92}.rib{stroke:#B6CE92}.rain{stroke:#A6BEDA}
.cap{fill:#D8D2C4}.tc{fill:#9c9a92}.no{fill:#9c9a92}}
</style>
<g transform="translate(20,20)"><rect class="frame" x="0" y="0" width="200" height="124" rx="3"/><text class="no" x="12" y="18">1</text><path class="line" d="M14,108 L186,108"/><circle class="ink" cx="70" cy="82" r="6"/><rect class="ink" x="64" y="87" width="12" height="21" rx="5"/><circle class="ink" cx="95" cy="84" r="5.5"/><rect class="ink" x="90" y="89" width="11" height="19" rx="5"/><circle class="ink" cx="100" cy="80" r="2.5"/><path class="leaf" d="M132,100 Q150,93 168,100 Q150,107 132,100 Z"/><path class="rib" d="M132,100 L168,100"/><path class="rib" d="M168,100 L176,103"/><text class="cap" x="100" y="144" text-anchor="middle">Двор после прогулки</text><text class="tc" x="100" y="160" text-anchor="middle">0:00 – 0:08 · общий</text></g>
<g transform="translate(240,20)"><rect class="frame" x="0" y="0" width="200" height="124" rx="3"/><text class="no" x="12" y="18">2</text><path class="line" d="M14,106 L70,106"/><path class="leaf" d="M48,52 Q110,20 172,52 Q110,84 48,52 Z"/><path class="rib" d="M48,52 L172,52"/><path class="rib" d="M172,52 L184,58"/><circle class="ink" cx="30" cy="84" r="6"/><rect class="ink" x="24" y="89" width="12" height="17" rx="5"/><path class="line" d="M30,92 L52,62"/><text class="cap" x="100" y="144" text-anchor="middle">Лист больше Макса</text><text class="tc" x="100" y="160" text-anchor="middle">0:08 – 0:16 · крупно</text></g>
<g transform="translate(460,20)"><rect class="frame" x="0" y="0" width="200" height="124" rx="3"/><text class="no" x="12" y="18">3</text><path class="line" d="M14,108 L186,108"/><circle class="ink" cx="85" cy="80" r="6"/><rect class="ink" x="79" y="85" width="12" height="21" rx="5"/><circle class="ink" cx="110" cy="82" r="5.5"/><rect class="ink" x="105" y="87" width="11" height="19" rx="5"/><circle class="ink" cx="114" cy="78" r="2.5"/><path class="rain" d="M120,18 L114,40"/><text class="cap" x="100" y="144" text-anchor="middle">Первая капля</text><text class="tc" x="100" y="160" text-anchor="middle">0:16 – 0:22</text></g>
<g transform="translate(20,200)"><rect class="frame" x="0" y="0" width="200" height="124" rx="3"/><text class="no" x="12" y="18">4</text><path class="line" d="M14,108 L186,108"/><path class="rain" d="M40,16 L35,28"/><path class="rain" d="M70,22 L65,34"/><path class="rain" d="M100,14 L95,26"/><path class="rain" d="M130,24 L125,36"/><path class="rain" d="M160,18 L155,30"/><path class="rain" d="M95,38 L90,50"/><path class="rain" d="M55,44 L50,56"/><circle class="ink" cx="80" cy="84" r="6"/><rect class="ink" x="74" y="89" width="12" height="19" rx="5"/><circle class="ink" cx="108" cy="86" r="5.5"/><rect class="ink" x="103" y="91" width="11" height="17" rx="5"/><circle class="ink" cx="112" cy="82" r="2.5"/><path class="line" d="M108,93 L116,82"/><text class="cap" x="100" y="144" text-anchor="middle">Дождь усиливается</text><text class="tc" x="100" y="160" text-anchor="middle">0:22 – 0:28</text></g>
<g transform="translate(240,200)"><rect class="frame" x="0" y="0" width="200" height="124" rx="3"/><text class="no" x="12" y="18">5</text><path class="line" d="M30,108 L170,108"/><path class="leaf" d="M35,58 Q95,40 155,58 Q95,76 35,58 Z"/><path class="rib" d="M35,58 L155,58"/><circle class="ink" cx="95" cy="80" r="6"/><rect class="ink" x="89" y="85" width="12" height="23" rx="5"/><path class="line" d="M91,88 L80,66"/><path class="line" d="M99,88 L110,66"/><path class="rain" d="M55,18 L51,32"/><path class="rain" d="M95,14 L91,28"/><path class="rain" d="M135,18 L131,32"/><path class="rain" d="M40,26 L36,38"/><path class="rain" d="M150,26 L146,38"/><text class="cap" x="100" y="144" text-anchor="middle">Макс поднимает крышу</text><text class="tc" x="100" y="160" text-anchor="middle">0:28 – 0:36 · ключевой</text></g>
<g transform="translate(460,200)"><rect class="frame" x="0" y="0" width="200" height="124" rx="3"/><text class="no" x="12" y="18">6</text><path class="line" d="M14,110 L186,110"/><path class="leaf" d="M36,52 Q100,34 164,52 Q100,70 36,52 Z"/><path class="rib" d="M36,52 L164,52"/><circle class="ink" cx="78" cy="84" r="6"/><rect class="ink" x="72" y="89" width="12" height="21" rx="5"/><path class="line" d="M80,88 L92,60"/><circle class="ink" cx="128" cy="84" r="5.5"/><rect class="ink" x="123" y="89" width="11" height="15" rx="5"/><circle class="ink" cx="132" cy="80" r="2.5"/><path class="line" d="M125,104 L120,112"/><path class="line" d="M131,104 L136,112"/><path class="rain" d="M24,30 L20,42"/><path class="rain" d="M176,30 L172,42"/><path class="rain" d="M20,54 L16,66"/><path class="rain" d="M180,52 L176,64"/><text class="cap" x="100" y="144" text-anchor="middle">Ева забегает под лист</text><text class="tc" x="100" y="160" text-anchor="middle">0:36 – 0:42</text></g>
<g transform="translate(20,380)"><rect class="frame" x="0" y="0" width="200" height="124" rx="3"/><text class="no" x="12" y="18">7</text><path class="line" d="M14,110 L186,110"/><path class="leaf" d="M34,46 Q100,28 166,46 Q100,64 34,46 Z"/><path class="rib" d="M34,46 L166,46"/><path class="rib" d="M100,28 L100,20"/><circle class="ink" cx="88" cy="82" r="6"/><rect class="ink" x="82" y="87" width="12" height="21" rx="5"/><circle class="ink" cx="110" cy="84" r="5.5"/><rect class="ink" x="105" y="89" width="11" height="19" rx="5"/><circle class="ink" cx="114" cy="80" r="2.5"/><path class="rain" d="M60,14 L56,26"/><path class="rain" d="M100,10 L96,22"/><path class="rain" d="M140,14 L136,26"/><path class="rain" d="M30,50 L26,64"/><path class="rain" d="M170,50 L166,64"/><path class="rain" d="M26,70 L22,84"/><path class="rain" d="M174,70 L170,84"/><text class="cap" x="100" y="144" text-anchor="middle">Свой сухой мир</text><text class="tc" x="100" y="160" text-anchor="middle">0:42 – 0:52 · пауза</text></g>
<g transform="translate(240,380)"><rect class="frame" x="0" y="0" width="200" height="124" rx="3"/><text class="no" x="12" y="18">8</text><path class="line" d="M30,108 L170,108"/><path class="leaf" d="M40,40 Q100,27 160,40 Q100,53 40,40 Z"/><path class="rib" d="M40,40 L160,40"/><circle class="ink" cx="86" cy="82" r="6"/><rect class="ink" x="80" y="87" width="12" height="21" rx="5"/><circle class="ink" cx="112" cy="83" r="5.5"/><rect class="ink" x="107" y="88" width="11" height="20" rx="5"/><circle class="ink" cx="118" cy="79" r="2.5"/><path class="line" d="M83,85 Q86,88 89,85"/><path class="line" d="M110,86 Q113,89 116,86"/><path class="rain" d="M24,30 L20,42"/><path class="rain" d="M176,32 L172,44"/><text class="cap" x="100" y="144" text-anchor="middle">Переглянулись</text><text class="tc" x="100" y="160" text-anchor="middle">0:52 – 0:57</text></g>
<g transform="translate(460,380)"><rect class="frame" x="0" y="0" width="200" height="124" rx="3"/><text class="no" x="12" y="18">9</text><path class="line" d="M14,108 L186,108"/><path class="leaf" d="M66,56 Q100,45 134,56 Q100,67 66,56 Z"/><path class="rib" d="M66,56 L134,56"/><path class="rib" d="M100,45 L100,38"/><circle class="ink" cx="92" cy="82" r="5"/><rect class="ink" x="87" y="86" width="10" height="20" rx="4"/><circle class="ink" cx="108" cy="83" r="4.5"/><rect class="ink" x="104" y="87" width="9" height="19" rx="4"/><circle class="ink" cx="114" cy="80" r="2"/><path class="rain" d="M30,18 L26,32"/><path class="rain" d="M55,14 L51,28"/><path class="rain" d="M150,18 L146,32"/><path class="rain" d="M170,26 L166,40"/><path class="rain" d="M40,46 L36,60"/><path class="rain" d="M166,50 L162,64"/><path class="rain" d="M25,72 L21,86"/><path class="rain" d="M176,70 L172,84"/><path class="rain" d="M50,82 L46,96"/><path class="rain" d="M150,84 L146,98"/><path class="rain" d="M120,30 L116,44"/><path class="rain" d="M80,24 L76,38"/><text class="cap" x="100" y="144" text-anchor="middle">Один лист на двоих</text><text class="tc" x="100" y="160" text-anchor="middle">0:57 – 1:02 · общий</text></g>
</svg>
